# xmcd
#
# Track frame offsets: 
#        150
#        13805
#        26602
#        40210
#        53954
#        67520
#        79623
#        92244
#        111991
#        126631
#        139813
#        154776
#        166880
#        179988
#        191174
#        203596
#
# Disc length: 2942 seconds
#
# Revision: 2
# Processed by: cddbd v1.5.2PL0 Copyright (c) Steve Scherf et al.
# Submitted via: ExactAudioCopy v1.0b4
#
DISCID=e20b7c10
DTITLE=Pinduca - Ao Vivo
DYEAR=2000
DGENRE=Other
TTITLE0=Comadre E Compadre
TTITLE1=A Morte Do Peru
TTITLE2=Coco Sem Azeite
TTITLE3=Tia Luzia, Tio José
TTITLE4=Garota Do Tacacá
TTITLE5=12 Horas Sem Te Ver
TTITLE6=Borboleta Do Cacau
TTITLE7=Cavalo Velho (El Cabalo)
TTITLE8=O Rico E O Pobre
TTITLE9=Ponta De Pedras
TTITLE10=Carimbó Do Socó
TTITLE11=O Caçador
TTITLE12=Depois Da Chuva
TTITLE13=Feijão No Fogo
TTITLE14=Marcha Do Vestibular
TTITLE15=Carimbó No Mato
EXTD=
EXTT0=
EXTT1=
EXTT2=
EXTT3=
EXTT4=
EXTT5=
EXTT6=
EXTT7=
EXTT8=
EXTT9=
EXTT10=
EXTT11=
EXTT12=
EXTT13=
EXTT14=
EXTT15=
PLAYORDER=
